<svg width="18" height="19" viewBox="0 0 18 19" fill="none" xmlns="http://www.w3.org/2000/svg">
<path opacity="0.3" fill-rule="evenodd" clip-rule="evenodd" d="M2.43243 0.856445C1.08961 0.856445 0 1.92225 0 3.23572C0 4.54919 1.08961 5.63729 2.43243 5.63729C3.77525 5.63729 4.86486 4.54919 4.86486 3.23572C4.86402 1.92225 3.77441 0.856445 2.43243 0.856445ZM17.9955 18.0675V18.0667H18V11.4059C18 8.14739 17.3022 5.63729 13.5129 5.63729C11.6913 5.63729 10.4689 6.64224 9.96982 7.59497H9.91713V5.9415H6.32432V18.0667H10.0654V12.0628C10.0654 10.4819 10.3635 8.95332 12.3108 8.95332C14.2295 8.95332 14.2582 10.7574 14.2582 12.1642V18.0675H17.9955ZM4.37838 6.59346H0.486486V18.0675H4.37838V6.59346Z" fill="black"/>
</svg>
